<svg width="5" height="8" viewBox="0 0 5 8" fill="none" xmlns="http://www.w3.org/2000/svg">
<path d="M4.18796 7.8393C4.58346 7.74336 4.91239 7.38702 4.98483 6.97978C5.02791 6.73308 4.97309 6.44918 4.84191 6.23577C4.80666 6.17899 4.3211 5.67777 3.68282 5.03753L2.58444 3.93523L3.7024 2.81531C4.71464 1.79915 4.82428 1.68168 4.88106 1.5642C5.0886 1.13151 5.02203 0.67923 4.70094 0.338554C4.43466 0.0546576 4.05287 -0.0589011 3.67303 0.0292048C3.3911 0.0957737 3.43613 0.0566155 1.77386 1.71105C0.812531 2.66846 0.211454 3.28325 0.164464 3.35373C0.0450315 3.53582 -4.76837e-07 3.69441 -4.76837e-07 3.93523C-4.76837e-07 4.17605 0.0450315 4.33464 0.164464 4.51673C0.211454 4.58721 0.812531 5.202 1.77386 6.15941C3.43613 7.81385 3.3911 7.77469 3.67303 7.84126C3.82771 7.8765 4.03525 7.8765 4.18796 7.8393Z" fill="#D1CFCF"/>
</svg>
