<svg width="5" height="8" viewBox="0 0 5 8" fill="none" xmlns="http://www.w3.org/2000/svg">
<path d="M0.812036 0.028194C0.416538 0.124131 0.0876099 0.480471 0.0151674 0.887715C-0.0279066 1.13441 0.0269148 1.41831 0.158095 1.63172C0.193337 1.6885 0.678898 2.18972 1.31718 2.82996L2.41556 3.93226L1.2976 5.05219C0.285359 6.06834 0.175716 6.18581 0.118936 6.30329C-0.0886017 6.73599 -0.0220329 7.18826 0.299064 7.52894C0.565339 7.81284 0.947131 7.92639 1.32697 7.83829C1.6089 7.77172 1.56387 7.81088 3.22614 6.15645C4.18747 5.19903 4.78855 4.58424 4.83554 4.51376C4.95497 4.33167 5 4.17308 5 3.93226C5 3.69144 4.95497 3.53285 4.83554 3.35076C4.78855 3.28028 4.18747 2.6655 3.22614 1.70808C1.56387 0.0536466 1.6089 0.0928049 1.32697 0.0262361C1.17229 -0.0090065 0.964753 -0.0090065 0.812036 0.028194Z" fill="#D1CFCF"/>
</svg>
