<svg width="45" height="38" viewBox="0 0 45 38" fill="none" xmlns="http://www.w3.org/2000/svg">
<path fill-rule="evenodd" clip-rule="evenodd" d="M33.6975 0.372803C33.5448 0.577928 33.1887 1.30962 32.9062 1.99905L32.3926 3.25234L33.174 5.85251C33.6038 7.28259 33.9553 8.48036 33.9553 8.51433C33.9553 8.54829 33.1043 8.54018 32.064 8.49644C26.4658 8.26049 21.5067 10.8923 19.0002 15.4297C16.4006 20.1357 17.2349 25.941 21.0714 29.8436C22.0537 30.8428 24.3116 32.4753 24.7112 32.4753C24.9413 32.4753 26.9179 30.8562 26.9179 30.6678C26.9179 30.5995 26.5022 30.3631 25.9943 30.1425C25.4251 29.8953 24.5611 29.2644 23.7435 28.4987C21.6302 26.5199 20.7602 24.5871 20.7602 21.8711C20.7602 19.3453 21.6012 17.3317 23.4226 15.4965C25.2814 13.6237 27.7689 12.5779 30.4366 12.5476C33.9558 12.5076 36.9569 13.9737 38.87 16.6675C41.3415 20.1476 41.1297 24.5129 38.3286 27.826C37.449 28.8667 35.5739 30.1411 34.1815 30.6446C33.2178 30.9932 33.109 31.0926 32.1393 32.5137L31.115 34.0147L32.2352 33.9067C33.8969 33.7463 35.7911 33.2029 37.3812 32.4302C39.3668 31.4654 41.8556 29.1216 42.8801 27.2516C45.1113 23.1789 45.0004 18.5704 42.5792 14.7322C41.7631 13.4385 40.1381 11.7238 39.0637 11.0225C38.6731 10.7677 38.354 10.5134 38.3543 10.4574C38.3547 10.4014 39.582 9.77374 41.0818 9.06243C44.0805 7.64031 44.0108 7.70559 44.7012 5.67274C45.0578 4.62293 45.0773 4.43967 44.8546 4.23786C44.5652 3.97574 34.5839 0 34.2148 0C34.083 0 33.8502 0.167679 33.6975 0.372803ZM4.00021 10.1767C1.79998 12.311 0 14.1688 0 14.3052C0 14.6757 1.9117 16.6878 2.44232 16.8759C2.69566 16.9657 4.1633 17.12 5.70361 17.2187C7.24409 17.3176 8.52876 17.4213 8.55849 17.4493C8.58822 17.4773 8.25641 18.1668 7.82097 18.9815C6.76625 20.9554 6.33328 22.6378 6.33486 24.7558C6.3375 28.4006 7.74831 31.5259 10.4964 33.9751C11.7786 35.1179 12.2816 35.4503 13.8478 36.1906C16.4769 37.4333 20.0224 37.789 23.0236 37.1115C27.1283 36.1846 30.6977 33.2554 32.3138 29.4871C34.2224 25.0373 33.2202 19.8311 29.7607 16.2211L28.8206 15.2404L27.8036 15.751C27.2441 16.0317 26.5434 16.4984 26.2464 16.7881L25.7063 17.3146L26.6984 18.0602C27.8739 18.9439 29.1588 20.6555 29.72 22.0859C30.2193 23.3577 30.3984 25.8328 30.0921 27.2228C29.5261 29.7901 27.3838 32.4165 24.9383 33.5409C20.7817 35.4521 16.5612 34.8226 13.368 31.8154C10.2592 28.8874 9.54442 24.8892 11.4498 21.0848C11.8748 20.2358 12.3822 19.6207 13.5513 18.5368C14.6641 17.5052 15.1275 16.9524 15.2183 16.5485C15.2874 16.2408 15.6126 15.3078 15.9409 14.475C16.6854 12.5865 16.697 12.3847 16.054 12.5293C15.0781 12.749 13.2649 13.4461 12.6071 13.8545C12.2353 14.0853 11.9063 14.25 11.8759 14.2204C11.8455 14.1907 11.6887 13.0854 11.5274 11.764C11.3662 10.4426 11.1551 9.12026 11.0583 8.82533C10.8659 8.23928 8.72281 6.29623 8.2689 6.29623C8.12112 6.29623 6.20027 8.04244 4.00021 10.1767Z" fill="#53D9C1"/>
</svg>
