<svg width="12" height="13" viewBox="0 0 12 13" fill="none" xmlns="http://www.w3.org/2000/svg">
<path fill-rule="evenodd" clip-rule="evenodd" d="M8.62669 0.019808C8.17234 0.106853 7.83208 0.294343 7.4858 0.648401C7.20967 0.930738 7.045 1.20338 6.95055 1.53456L6.89316 1.73573H3.57931H0.265422L0.161359 1.82435C-0.0537863 2.00757 -0.0537863 2.30355 0.161359 2.48678L0.265422 2.5754H3.57837H6.89132L6.96275 2.81155C7.06533 3.15088 7.25911 3.45764 7.54367 3.73116C8.68464 4.82793 10.5821 4.31647 11.0489 2.78629L11.1078 2.59289L11.4377 2.5754C11.8075 2.55577 11.9078 2.5 11.9819 2.27287C12.0298 2.1259 11.9807 1.95621 11.8556 1.83709C11.779 1.76407 11.725 1.75095 11.4377 1.73573L11.1078 1.71824L11.0489 1.52484C10.7812 0.647247 10 0.0385955 9.09512 0.00248995C8.92305 -0.0043673 8.71226 0.00343458 8.62669 0.019808ZM9.53163 0.973526C9.80482 1.10053 10.0228 1.31576 10.1565 1.59075C10.2595 1.80241 10.2689 1.84965 10.2689 2.15556C10.2689 2.46148 10.2595 2.50871 10.1565 2.72038C10.0233 2.99418 9.80635 3.20917 9.53163 3.33949C9.36233 3.41978 9.29039 3.43255 9.00699 3.43255C8.72301 3.43255 8.65179 3.41985 8.48087 3.33879C8.21974 3.21494 7.97103 2.97441 7.84625 2.72507C7.75353 2.53978 7.74509 2.49227 7.74509 2.15556C7.74509 1.82145 7.75391 1.77079 7.84255 1.59579C8.00193 1.28119 8.21317 1.08685 8.55382 0.941374C8.82289 0.82648 9.24523 0.84037 9.53163 0.973526ZM2.48024 4.39533C1.75256 4.58824 1.16714 5.1496 0.94951 5.8631L0.890529 6.0565L0.560637 6.074C0.273409 6.08921 0.219406 6.10233 0.142759 6.17535C-0.0472866 6.35637 -0.0472866 6.63129 0.142759 6.8123C0.219406 6.88532 0.273409 6.89844 0.560637 6.91366L0.890529 6.93115L0.94951 7.12456C1.33928 8.40238 2.76367 9.02062 3.95473 8.42897C4.46129 8.17732 4.92183 7.61009 5.06427 7.06235L5.10295 6.91366H8.41795H11.7329L11.837 6.82504C12.0521 6.64182 12.0521 6.34584 11.837 6.16262L11.7329 6.074H8.41905H5.1052L5.04781 5.87283C4.89666 5.34289 4.43882 4.79274 3.95162 4.5556C3.47514 4.32368 2.96146 4.26774 2.48024 4.39533ZM3.51749 5.3127C3.7771 5.43309 4.02664 5.67358 4.15211 5.92433C4.24483 6.10961 4.25326 6.15712 4.25326 6.49383C4.25326 6.83053 4.24483 6.87804 4.15211 7.06333C4.02733 7.31267 3.77862 7.5532 3.51749 7.67705C3.34656 7.75812 3.27534 7.77082 2.99137 7.77082C2.70797 7.77082 2.63603 7.75805 2.46673 7.67775C2.19201 7.54743 1.97504 7.33244 1.84183 7.05864C1.73891 6.84708 1.72947 6.79967 1.72947 6.49456C1.72947 6.20778 1.74212 6.13414 1.82057 5.96484C1.98105 5.61851 2.26254 5.36644 2.62096 5.24805C2.85325 5.17136 3.27887 5.20204 3.51749 5.3127ZM6.76724 8.7336C6.03959 8.92651 5.45466 9.48733 5.23637 10.2014L5.17725 10.3948L2.70417 10.4123L0.231092 10.4298L0.142897 10.5136C-0.0473558 10.6945 -0.0473558 10.9697 0.142897 11.1506L0.231092 11.2344L2.70417 11.2519L5.17725 11.2694L5.23637 11.4628C5.51081 12.3605 6.36755 13 7.29565 13C8.19962 13 9.04402 12.3711 9.32558 11.4881L9.40091 11.2519H10.5669H11.7329L11.837 11.1633C11.9774 11.0438 12.0325 10.8699 11.9806 10.7108C11.9588 10.6441 11.8942 10.5496 11.837 10.5009L11.7329 10.4123H10.5669H9.40091L9.32558 10.1761C8.98017 9.0928 7.83906 8.4494 6.76724 8.7336ZM7.82399 9.65765C8.26621 9.86217 8.55707 10.3104 8.56153 10.7943C8.56519 11.1882 8.47717 11.4316 8.23481 11.6982C7.94862 12.0129 7.63056 12.144 7.21292 12.1196C6.73322 12.0915 6.31192 11.8034 6.10974 11.3651C6.02957 11.1913 6.01726 11.12 6.01778 10.8321C6.01833 10.5432 6.03057 10.4746 6.11133 10.3073C6.36309 9.78598 6.77938 9.52624 7.33022 9.54685C7.54661 9.55493 7.65406 9.57903 7.82399 9.65765Z" fill="#012433"/>
</svg>
